<svg xmlns="http://www.w3.org/2000/svg" viewBox="0 0 926.73 164.56"><defs><style>.cls-2{fill:#fff}.cls-3{fill:#172d72}</style></defs><g id="图层_2" data-name="图层 2"><g id="Layer_2" data-name="Layer 2"><path fill="#e30c34" d="M0 41.14v82.28l71.26 41.14 71.25-41.14V41.14L71.26 0 0 41.14z"/><path d="M71.22 27.47 23.89 54.79v27.32l23.67-13.67v55.01l23.66 13.64V54.78l23.65-13.65-23.65-13.66zM95.01 68.58v54.84l23.75-13.71V54.86L95.01 68.58z" class="cls-2"/><path d="M208.34 123.65h-17V55.16h-25.07V41h66.22v14.16h-24.15ZM259.7 55.16h-15.87V41h15.87Zm0 68.49h-15.87V62.42h15.87ZM276.71 97V41h17v56c0 10 5.1 14.74 15.76 14.74S325.24 107 325.24 97V41h17v56c0 23.36-18.83 29.25-32.77 29.25s-32.76-5.89-32.76-29.25ZM374.56 62.42v8.84c4.53-6.8 10.09-9.86 18.37-9.86 13 0 20.52 7.71 20.52 21.2v41.05h-15.87V85.89c0-7.26-3.41-11-10.21-11-7.71 0-12.81 4.76-12.81 12v36.74h-15.88V62.42ZM444.63 55.16h-15.88V41h15.88Zm0 68.49h-15.88V62.42h15.88ZM478.64 123.65h-17V41H487l15 65.76L516.51 41h25.63v82.66h-17V59.24l-14.64 64.41h-17l-14.86-64.41ZM555.74 107.89c0-11 5.9-17.24 18-19.28l6.35-1.13c5.22-.8 12.7-1.14 12.7-7.15q0-6.12-9.19-6.12c-7.82 0-10.43 2-11.22 8.39H557.1c1-14.17 9.64-21.2 26.19-21.2s25.06 6.35 25.06 18.82v34c0 3.17.8 4.87 3.63 7.48v1.93h-17.23c-1.48-1.82-1.82-3-1.82-6.13-5.55 5.79-11.79 8.73-18.59 8.73-11.11.02-18.6-7.35-18.6-18.34Zm37.08-13.16c-1.82.91-2.49 1.14-6.69 1.93l-5.44 1c-6.58 1.36-9.07 3.63-9.07 8.39 0 4.54 3.28 7.37 8.61 7.37 8 0 12.59-5.21 12.59-14.4ZM638.63 62.42v8.84c4.53-6.8 10.09-9.86 18.36-9.86 13 0 20.53 7.71 20.53 21.2v41.05h-15.88V85.89c0-7.26-3.4-11-10.2-11-7.71 0-12.81 4.76-12.81 12v36.74h-15.88V62.42ZM689.42 107.89c0-11 5.9-17.24 18-19.28l6.35-1.13c5.21-.8 12.7-1.14 12.7-7.15q0-6.12-9.19-6.12c-7.82 0-10.43 2-11.22 8.39h-15.28c1-14.17 9.64-21.2 26.19-21.2S742 67.75 742 80.22v34c0 3.17.8 4.87 3.63 7.48v1.93h-17.21c-1.47-1.82-1.81-3-1.81-6.13-5.56 5.79-11.79 8.73-18.6 8.73-11.11.02-18.59-7.35-18.59-18.34Zm37.08-13.16c-1.82.91-2.5 1.14-6.69 1.93l-5.45 1c-6.57 1.36-9.07 3.63-9.07 8.39 0 4.54 3.29 7.37 8.62 7.37 8.05 0 12.59-5.21 12.59-14.4ZM811.08 62.42v63.27c0 14.4-10.66 22.68-29.14 22.68-16.21 0-26.87-6.7-27.1-17.35h16.44c1.25 4.65 5.22 7.14 11.23 7.14 7.94 0 13.49-5.1 13.49-12.47v-8.28c-5.89 6.69-10.2 8.84-17.35 8.84-15.08 0-25.06-12.7-25.06-31.74S764.48 61.4 779 61.4c7 0 12.25 3.17 17 10.43v-9.41Zm-41.61 31.86c0 11.11 5.21 18.71 12.7 18.71 8.28 0 14.06-7.6 14.06-18.71 0-11.34-5.9-19.62-13.84-19.62-7.71 0-12.92 8.05-12.92 19.62ZM880 95.3c0 .79 0 1.36-.11 2.72h-41c.34 8.28 2 16.1 12.7 16.1 5.78 0 10.2-2.83 12.13-7.71h15.65c-3.52 12-14.63 19.84-28.35 19.84-17.35 0-28-12-28-31.63 0-20.52 10.78-33.22 28.35-33.22 12.21 0 28.63 6.8 28.63 33.9Zm-28.89-21.77c-7 0-11 4.65-12 14h24.37c-.7-9.01-5-14-12.37-14ZM907.79 62.42v12c3.41-8.28 9.76-13 17-13a14.35 14.35 0 0 1 1.93.11v16.1a28 28 0 0 0-5-.45q-13.95 0-14 13.94v32.55h-15.8V62.42Z" class="cls-3"/></g></g></svg>